# xmcd CD database file
#
# Track frame offsets:
#	150
#	14062
#	30711
#	44421
#	57158
#	74447
#	86547
#	95747
#	107774
#	121863
#	137845
#	152144
#	168594
#	183043
#	192548
#	203851
#	214788
#	236117
#
# Disc length: 3328 seconds
#
# Revision: 0
# Processed by: cddbd v1.5.2PL0 Copyright (c) Steve Scherf et al.
# Submitted via: CDex 1.60beta1
#
DISCID=090cfe12
DTITLE=歌謡曲番外地 - 悪なあなた
DYEAR=1900
DGENRE=Blues
TTITLE0=あなたに負けたの
TTITLE1=悪なあなた
TTITLE2=山猫の唄
TTITLE3=ベッドにばかりいるの
TTITLE4=恋はウムウム
TTITLE5=モーニング・ブルース
TTITLE6=恋はまっさかさま
TTITLE7=Oh-No!
TTITLE8=ホットパンツのお嬢さん
TTITLE9=恋のチアガール
TTITLE10=うそみたい?
TTITLE11=ハイティーン・ガール
TTITLE12=本牧ディスコティック
TTITLE13=プレイガールNo.1
TTITLE14=恋人たちの森
TTITLE15=急がば回れ
TTITLE16=エルザのテーマ
TTITLE17=とおく群衆を離れて
EXTD=
EXTT0=
EXTT1=
EXTT2=
EXTT3=
EXTT4=
EXTT5=
EXTT6=
EXTT7=
EXTT8=
EXTT9=
EXTT10=
EXTT11=
EXTT12=
EXTT13=
EXTT14=
EXTT15=
EXTT16=
EXTT17=
PLAYORDER=
